<svg width="558" height="500" viewBox="0 0 558 500" fill="none" xmlns="http://www.w3.org/2000/svg">
<g opacity="0.15">
<path d="M446.8 131.409C459.064 128.91 470.576 127.915 481.979 130.196C510.06 135.643 524.86 154.59 525.49 184.698C525.964 206.909 521.694 228.161 511.346 247.667C500.538 268.022 495.116 289.735 491.355 312.116C488.153 331.149 484.999 350.181 481.748 369.202C480.195 378.251 478.837 379.331 469.399 379.307C455.401 379.307 441.402 379.238 427.404 379.1C416.414 379.003 407.995 384.486 400.195 391.388C378.47 410.494 355.034 427.21 328.735 439.668C303.964 451.41 278.527 461.078 250.518 461.102C212.659 461.102 190.448 437.326 193.505 399.552C194.633 385.469 195.251 371.058 203.998 358.855C205.065 357.363 205.368 354.621 208.025 355.215C210.681 355.81 209.735 358.454 210.002 360.238C210.766 365.284 210.888 370.451 212.04 375.388C217.899 400.656 237.441 413.102 265.802 410.761C291.506 408.626 314.081 398.291 335.916 385.639C402.063 347.294 450.646 293.447 479.844 222.496C485.654 208.377 488.214 193.505 488.881 178.378C489.815 157.538 477.794 141.465 457.342 135.157C454.054 134.078 450.403 133.981 446.8 131.409Z" fill="#042E5F"/>
<path d="M389.266 331.015C370.609 344.832 352.001 358.721 333.235 372.404C328.48 375.874 322.585 376.165 317.174 374.988C287.649 368.535 262.284 355.422 247.461 327.594C230.296 295.449 237.344 252.641 264.177 223.115C286.254 198.854 315.124 187.609 346.494 181.762C356.987 179.797 367.661 179.555 378.336 179.579C408.116 179.579 437.897 179.579 467.677 179.579C478.594 179.579 479.637 181.01 476.508 191.042C473.536 200.565 470.309 210.002 467.471 219.561C465.821 225.092 462.618 227.336 456.771 227.3C430.545 227.106 404.32 226.997 378.106 227.3C360.711 227.506 343.57 229.508 327.764 237.817C306.378 249.05 294.357 271.528 297.96 293.92C300.18 307.664 308.101 316.762 320.898 321.748C337.942 328.371 355.676 330.469 373.848 329.657C378.833 329.426 383.831 329.657 388.817 329.657C388.962 330.093 389.12 330.554 389.266 331.015Z" fill="#DEE2E6"/>
<path d="M15.7696 377.257C29.5983 362.445 41.9713 348.823 54.7811 335.637C60.1185 330.142 67.421 328.613 74.9904 328.565C91.8638 328.48 108.737 328.565 125.574 327.231C146.426 325.557 162.257 311.861 166.272 291.276C172.689 258.403 178.645 225.444 184.698 192.498C187.124 179.385 187.403 179.009 201.013 179.009C213.678 179.009 226.342 179.106 238.994 179.009C244.695 179.009 246.636 181.544 245.605 186.906C238.412 224.583 231.121 262.248 224.049 299.961C218.639 328.832 200.274 347.27 175.612 360.614C157.295 370.536 137.511 374.454 116.828 375.631C83.7971 377.463 50.7538 375.655 15.7696 377.257Z" fill="#042E5F"/>
<path d="M373.46 296.189C361.693 296.189 349.927 296.189 338.16 296.189C336.268 296.189 333.805 296.965 332.835 294.624C331.864 292.283 333.793 290.985 335.261 289.651C346.882 279.315 358.487 268.972 370.075 258.621C373.061 255.937 376.982 254.534 380.993 254.715C401.614 254.873 422.236 254.715 442.931 254.824C444.787 254.824 447.201 253.878 448.377 256.037C449.554 258.196 447.589 259.81 446.533 261.35C440.905 269.599 435.264 277.835 429.381 285.89C424.177 293.023 416.875 296.201 408.08 296.177C396.556 296.152 385.008 296.189 373.46 296.189Z" fill="#DEE2E6"/>
<path d="M368.862 137.207C404.38 113.553 441.718 96.2793 485.314 96.9222C497.548 97.0304 509.636 99.5834 520.869 104.431C533.157 109.768 540.277 119.303 541.806 132.331C542.764 140.361 541.976 148.598 541.976 158.46C540.062 155.63 538.297 152.703 536.687 149.69C526.012 126.363 506.276 117.034 482.282 113.529C458.288 110.023 435.458 113.893 413.054 122.02C400.571 126.581 388.174 131.397 375.692 135.97C373.617 136.759 371.725 138.287 368.862 137.207Z" fill="#DEE2E6"/>
</g>
</svg>
